HIERARCHY
ROOT Hips
{
	OFFSET 0.00 0.00 0.00
	CHANNELS 6 Xposition Yposition Zposition Xrotation Yrotation Zrotation
	JOINT Spine
	{
		OFFSET 0.00000 1.75157 2.62736
		CHANNELS 3 Xrotation Yrotation Zrotation
		JOINT Spine1
		{
			OFFSET 0.00000 0.60831 3.44992
			CHANNELS 3 Xrotation Yrotation Zrotation
			JOINT Spine2
			{
				OFFSET 0.00000 0.30532 3.48981
				CHANNELS 3 Xrotation Yrotation Zrotation
				JOINT Spine3
				{
					OFFSET 0.00000 0.00000 3.50314
					CHANNELS 3 Xrotation Yrotation Zrotation
					JOINT Neck
					{
						OFFSET 0.00000 -1.31368 9.19575
						CHANNELS 3 Xrotation Yrotation Zrotation
						JOINT Head
						{
							OFFSET 0.00000 -0.83643 4.74364
							CHANNELS 3 Xrotation Yrotation Zrotation
							End Site
							{
								OFFSET 0.00000 0.00000 5.67071
							}
						}
					}
					JOINT RightShoulder
					{
						OFFSET -1.05974 -1.76624 5.72262
						CHANNELS 3 Xrotation Yrotation Zrotation
						JOINT RightArm
						{
							OFFSET -5.26340 -0.00000 0.00000
							CHANNELS 3 Xrotation Yrotation Zrotation
							JOINT RightForeArm
							{
								OFFSET -10.14667 -0.00000 0.00000
								CHANNELS 3 Xrotation Yrotation Zrotation
								JOINT RightHand
								{
									OFFSET -8.53343 -0.00000 0.00000
									CHANNELS 3 Xrotation Yrotation Zrotation
									JOINT RightHandEnd
									{
										OFFSET -2.46135 -0.00000 0.00000
										CHANNELS 3 Xrotation Yrotation Zrotation
										End Site
										{
											OFFSET -2.46135 -0.00000 0.00000
										}
									}
									JOINT RightHandThumb1
									{
										OFFSET -0.98454 -1.64090 -0.65636
										CHANNELS 3 Xrotation Yrotation Zrotation
										End Site
										{
											OFFSET -2.37748 -0.63704 0.00000
										}
									}
								}
							}
						}
					}
					JOINT LeftShoulder
					{
						OFFSET 1.05974 -1.76624 5.72262
						CHANNELS 3 Xrotation Yrotation Zrotation
						JOINT LeftArm
						{
							OFFSET 5.26340 0.00000 0.00000
							CHANNELS 3 Xrotation Yrotation Zrotation
							JOINT LeftForeArm
							{
								OFFSET 10.14667 0.00000 0.00000
								CHANNELS 3 Xrotation Yrotation Zrotation
								JOINT LeftHand
								{
									OFFSET 8.53343 0.00000 0.00000
									CHANNELS 3 Xrotation Yrotation Zrotation
									JOINT LeftHandEnd
									{
										OFFSET 2.46135 0.00000 0.00000
										CHANNELS 3 Xrotation Yrotation Zrotation
										End Site
										{
											OFFSET 2.46135 0.00000 0.00000
										}
									}
									JOINT LeftHandThumb1
									{
										OFFSET 0.98454 -1.64090 -0.65636
										CHANNELS 3 Xrotation Yrotation Zrotation
										End Site
										{
											OFFSET 2.37748 -0.63704 0.00000
										}
									}
								}
							}
						}
					}
				}
			}
		}
	}
	JOINT RightUpLeg
	{
		OFFSET -3.14391 0.00000 -0.91845
		CHANNELS 3 Xrotation Yrotation Zrotation
		JOINT RightLeg
		{
			OFFSET 0.00000 0.00000 -14.43197
			CHANNELS 3 Xrotation Yrotation Zrotation
			JOINT RightFoot
			{
				OFFSET 0.00000 0.00000 -14.31693
				CHANNELS 3 Xrotation Yrotation Zrotation
				JOINT RightToeBase
				{
					OFFSET 0.00000 -4.51635 -1.64382
					CHANNELS 3 Xrotation Yrotation Zrotation
					End Site
					{
						OFFSET 0.00000 -2.54339 0.00000
					}
				}
			}
		}
	}
	JOINT LeftUpLeg
	{
		OFFSET 3.14391 0.00000 -0.91845
		CHANNELS 3 Xrotation Yrotation Zrotation
		JOINT LeftLeg
		{
			OFFSET 0.00000 0.00000 -14.43197
			CHANNELS 3 Xrotation Yrotation Zrotation
			JOINT LeftFoot
			{
				OFFSET 0.00000 0.00000 -14.31693
				CHANNELS 3 Xrotation Yrotation Zrotation
				JOINT LeftToeBase
				{
					OFFSET 0.00000 -4.51635 -1.64382
					CHANNELS 3 Xrotation Yrotation Zrotation
					End Site
					{
						OFFSET 0.00000 -2.54339 0.00000
					}
				}
			}
		}
	}
}
MOTION
Frames: 12
Frame Time: 0.008342
 -0.6282 1.8758 32.3542 -6.9995 14.2063 -179.7585 0.3551 1.1104 -0.1918 -0.0358 -0.5983 -0.1087 3.6396 0.3240 -1.4968 1.1333 -0.0966 -0.3720 -4.0608 3.3030 12.2364 3.4448 5.1808 13.4765 7.8929 -6.1094 10.4405 11.0061 -18.4862 34.0794 -0.0000 0.0000 95.4645 4.6621 26.4880 -1.6303 -0.0000 -0.0000 -0.0000 0.0000 -0.0000 -0.0000 7.1655 3.9078 -7.7297 51.6776 57.3929 -38.7020 -0.0000 0.0000 -118.4352 8.9246 -8.3764 2.9300 -0.0000 -0.0000 0.0000 -0.0000 -0.0000 0.0000 -15.9986 12.6382 -16.4672 17.5929 -0.0000 -0.0000 -10.9963 3.9865 -4.2886 0.6838 -0.0000 0.0000 -12.9611 -5.1538 21.2939 65.3012 0.0000 -0.0000 -2.0253 10.2380 17.8128 -25.7590 -0.0000 0.0000
 -0.6704 1.8597 32.3921 -7.0990 14.6949 -179.2229 0.3824 1.2405 -0.2122 0.0091 -0.5605 -0.1052 3.6142 0.3879 -1.6653 1.0961 -0.0569 -0.4489 -4.2269 3.4127 12.2076 3.4157 5.2278 13.3980 7.9471 -6.1105 10.1703 10.9785 -18.6188 33.8297 -0.0000 0.0000 95.7837 4.7393 26.4625 -1.7101 -0.0000 -0.0000 -0.0000 0.0000 0.0000 -0.0000 7.1135 3.7961 -7.8333 51.8569 57.3501 -38.8534 0.0000 0.0000 -118.4224 8.7653 -8.3418 3.0051 0.0000 0.0000 -0.0000 0.0000 -0.0000 -0.0000 -15.9481 13.3015 -16.6240 17.4689 0.0000 -0.0000 -10.8997 4.0093 -4.4329 0.7237 -0.0000 0.0000 -12.8446 -5.9555 20.7761 65.4332 0.0000 0.0000 -2.1592 10.0258 17.7282 -25.8335 0.0000 0.0000
 -0.7126 1.8416 32.4297 -7.1964 15.2053 -178.7140 0.4214 1.3825 -0.2345 0.0587 -0.5272 -0.1030 3.5910 0.4675 -1.8147 1.0602 -0.0124 -0.5286 -4.3956 3.5195 12.1954 3.3728 5.2731 13.3212 8.0164 -6.0879 9.9261 10.9461 -18.7856 33.5801 0.0000 0.0000 96.0940 4.8461 26.4449 -1.8091 -0.0000 -0.0000 -0.0000 0.0000 0.0000 -0.0000 7.0766 3.6966 -7.9186 51.9194 57.3032 -38.9019 0.0000 -0.0000 -118.4217 8.5109 -8.3674 3.0921 -0.0000 -0.0000 0.0000 -0.0000 0.0000 -0.0000 -15.9169 13.9826 -16.7350 17.3761 0.0000 -0.0000 -10.8075 4.0369 -4.5877 0.7588 -0.0000 -0.0000 -12.7409 -6.8173 20.3308 65.5459 -0.0000 -0.0000 -2.3154 9.8662 17.6283 -25.9249 -0.0000 0.0000
 -0.7543 1.8216 32.4671 -7.2912 15.7338 -178.2268 0.4708 1.5322 -0.2571 0.1139 -0.4973 -0.0988 3.5722 0.5634 -1.9516 1.0244 0.0364 -0.6161 -4.5654 3.6257 12.2028 3.3194 5.3115 13.2436 8.1028 -6.0399 9.7130 10.9077 -18.9927 33.3309 -0.0000 0.0000 96.3977 4.9818 26.4347 -1.9235 -0.0000 -0.0000 -0.0000 0.0000 -0.0000 0.0000 7.0585 3.6113 -7.9799 51.8589 57.2435 -38.8490 -0.0000 -0.0000 -118.4270 8.1939 -8.4425 3.1861 -0.0000 0.0000 -0.0000 0.0000 -0.0000 0.0000 -15.9008 14.6773 -16.7995 17.3086 0.0000 0.0000 -10.7173 4.0710 -4.7587 0.7900 -0.0000 0.0000 -12.6542 -7.7394 19.9527 65.6422 -0.0000 0.0000 -2.4879 9.7421 17.5210 -26.0286 0.0000 0.0000
 -0.7954 1.7996 32.5039 -7.3819 16.2726 -177.7543 0.5314 1.6823 -0.2794 0.1759 -0.4668 -0.0962 3.5547 0.6680 -2.0780 0.9897 0.0919 -0.7109 -4.7349 3.7365 12.2272 3.2610 5.3353 13.1638 8.2134 -5.9645 9.5286 10.8584 -19.2412 33.0860 -0.0000 0.0000 96.6974 5.1460 26.4347 -2.0558 -0.0000 0.0000 -0.0000 -0.0000 -0.0000 -0.0000 7.0611 3.5403 -8.0192 51.6784 57.1668 -38.7009 -0.0000 0.0000 -118.4313 7.8585 -8.5553 3.2814 -0.0000 0.0000 -0.0000 -0.0000 0.0000 -0.0000 -15.8932 15.3775 -16.8210 17.2615 -0.0000 0.0000 -10.6273 4.1127 -4.9518 0.8174 -0.0000 -0.0000 -12.5885 -8.7258 19.6326 65.7265 0.0000 0.0000 -2.6703 9.6349 17.4104 -26.1388 0.0000 -0.0000
 -0.8361 1.7761 32.5404 -7.4682 16.8225 -177.2902 0.6024 1.8348 -0.3015 0.2436 -0.4440 -0.0927 3.5403 0.7898 -2.2008 0.9555 0.1541 -0.8144 -4.9023 3.8534 12.2699 3.2029 5.3397 13.0787 8.3513 -5.8607 9.3756 10.7980 -19.5360 32.8459 -0.0000 0.0000 96.9957 5.3393 26.4460 -2.2047 -0.0000 -0.0000 -0.0000 -0.0000 -0.0000 -0.0000 7.0864 3.4845 -8.0300 51.3786 57.0604 -38.4655 -0.0000 0.0000 -118.4277 7.5423 -8.6940 3.3743 0.0000 0.0000 -0.0000 -0.0000 0.0000 0.0000 -15.8889 16.0852 -16.8049 17.2299 0.0000 -0.0000 -10.5364 4.1631 -5.1675 0.8420 -0.0000 -0.0000 -12.5463 -9.7678 19.3608 65.7969 0.0000 0.0000 -2.8536 9.5251 17.3014 -26.2495 0.0000 0.0000
 -0.8760 1.7512 32.5766 -7.5496 17.3759 -176.8278 0.6830 1.9849 -0.3212 0.3173 -0.4309 -0.0895 3.5276 0.9267 -2.3228 0.9221 0.2247 -0.9274 -5.0644 3.9785 12.3267 3.1499 5.3199 12.9868 8.5203 -5.7290 9.2486 10.7264 -19.8777 32.6151 -0.0000 0.0000 97.2933 5.5556 26.4681 -2.3656 -0.0000 -0.0000 -0.0000 -0.0000 0.0000 -0.0000 7.1321 3.4412 -8.0144 50.9729 56.9205 -38.1559 -0.0000 -0.0000 -118.4077 7.2747 -8.8472 3.4524 0.0000 -0.0000 0.0000 -0.0000 -0.0000 0.0000 -15.8813 16.7926 -16.7586 17.2086 -0.0000 -0.0000 -10.4432 4.2238 -5.4085 0.8648 -0.0000 0.0000 -12.5320 -10.8681 19.1258 65.8560 0.0000 0.0000 -3.0309 9.3965 17.1923 -26.3539 0.0000 -0.0000
 -0.9156 1.7255 32.6128 -7.6253 17.9357 -176.3593 0.7725 2.1289 -0.3421 0.3961 -0.4150 -0.0858 3.5175 1.0720 -2.4436 0.8897 0.3018 -1.0502 -5.2209 4.1193 12.3961 3.1068 5.2706 12.8842 8.7187 -5.5673 9.1418 10.6482 -20.2678 32.3968 0.0000 0.0000 97.5922 5.7891 26.4995 -2.5375 -0.0000 -0.0000 0.0000 -0.0000 0.0000 0.0000 7.1967 3.4198 -7.9722 50.4636 56.7324 -37.7748 0.0000 -0.0000 -118.3683 7.0739 -9.0037 3.5155 -0.0000 0.0000 -0.0000 0.0000 0.0000 -0.0000 -15.8620 17.5061 -16.6993 17.1908 -0.0000 0.0000 -10.3468 4.2943 -5.6659 0.8887 0.0000 0.0000 -12.5483 -12.0123 18.9121 65.9006 0.0000 -0.0000 -3.1950 9.2377 17.0857 -26.4453 -0.0000 -0.0000
 -0.9553 1.6990 32.6490 -7.6966 18.5035 -175.8802 0.8693 2.2731 -0.3607 0.4790 -0.4080 -0.0828 3.5103 1.2338 -2.5660 0.8582 0.3871 -1.1833 -5.3690 4.2715 12.4724 3.0766 5.1919 12.7725 8.9487 -5.3783 9.0498 10.5651 -20.7062 32.1964 -0.0000 0.0000 97.8908 6.0321 26.5369 -2.7137 0.0000 -0.0000 -0.0000 -0.0000 -0.0000 -0.0000 7.2729 3.4121 -7.9036 49.8800 56.4949 -37.3474 -0.0000 -0.0000 -118.3012 6.9514 -9.1587 3.5564 0.0000 0.0000 -0.0000 0.0000 -0.0000 -0.0000 -15.8291 18.2287 -16.6338 17.1767 -0.0000 -0.0000 -10.2484 4.3742 -5.9379 0.9133 0.0000 -0.0000 -12.5996 -13.1919 18.7104 65.9303 0.0000 0.0000 -3.3410 9.0433 16.9785 -26.5211 -0.0000 0.0000
 -0.9946 1.6723 32.6853 -7.7634 19.0731 -175.3845 0.9712 2.4088 -0.3768 0.5665 -0.4028 -0.0801 3.5071 1.4077 -2.6913 0.8263 0.4802 -1.3240 -5.5057 4.4370 12.5481 3.0602 5.0823 12.6512 9.2047 -5.1633 8.9615 10.4867 -21.1943 32.0191 -0.0000 0.0000 98.1888 6.2769 26.5745 -2.8902 0.0000 -0.0000 -0.0000 0.0000 -0.0000 0.0000 7.3556 3.4240 -7.8164 49.2314 56.1993 -36.8745 -0.0000 0.0000 -118.2077 6.9028 -9.3064 3.5789 0.0000 -0.0000 0.0000 0.0000 0.0000 0.0000 -15.7751 18.9551 -16.5767 17.1597 -0.0000 0.0000 -10.1465 4.4625 -6.2205 0.9395 0.0000 0.0000 -12.6924 -14.4063 18.5051 65.9473 0.0000 0.0000 -3.4676 8.8149 16.8671 -26.5795 0.0000 0.0000
 -1.0339 1.6452 32.7219 -7.8276 19.6490 -174.8692 1.0772 2.5393 -0.3893 0.6579 -0.3925 -0.0752 3.5067 1.5881 -2.8215 0.7944 0.5818 -1.4736 -5.6283 4.6123 12.6208 3.0570 4.9453 12.5201 9.4864 -4.9241 8.8725 10.4172 -21.7299 31.8693 -0.0000 0.0000 98.4838 6.5154 26.6093 -3.0636 0.0000 -0.0000 -0.0000 0.0000 -0.0000 -0.0000 7.4434 3.4518 -7.7142 48.5409 55.8445 -36.3767 -0.0000 0.0000 -118.0833 6.9127 -9.4520 3.5795 -0.0000 -0.0000 -0.0000 0.0000 -0.0000 -0.0000 -15.6990 19.6924 -16.5404 17.1400 -0.0000 0.0000 -10.0425 4.5561 -6.5040 0.9670 0.0000 0.0000 -12.8313 -15.6444 18.2888 65.9500 -0.0000 -0.0000 -3.5739 8.5587 16.7496 -26.6218 -0.0000 0.0000
 -1.0731 1.6181 32.7588 -7.8913 20.2302 -174.3309 1.1847 2.6694 -0.3972 0.7529 -0.3884 -0.0726 3.5105 1.7848 -2.9523 0.7619 0.6891 -1.6303 -5.7363 4.7966 12.6800 3.0666 4.7821 12.3838 9.7872 -4.6627 8.7706 10.3670 -22.3139 31.7563 -0.0000 0.0000 98.7718 6.7410 26.6349 -3.2290 -0.0000 -0.0000 -0.0000 0.0000 -0.0000 -0.0000 7.5256 3.4970 -7.6048 47.8313 55.4296 -35.8624 -0.0000 -0.0000 -117.9296 6.9631 -9.5942 3.5639 -0.0000 0.0000 0.0000 -0.0000 -0.0000 0.0000 -15.5988 20.4408 -16.5348 17.1155 -0.0000 0.0000 -9.9370 4.6520 -6.7840 0.9977 -0.0000 -0.0000 -13.0235 -16.9020 18.0525 65.9387 0.0000 -0.0000 -3.6614 8.2864 16.6243 -26.6509 -0.0000 0.0000
